<svg width="14" height="5" viewBox="0 0 14 5" fill="none" xmlns="http://www.w3.org/2000/svg">
<path d="M3.66665 2.49998C3.66665 2.94201 3.49105 3.36593 3.17849 3.67849C2.86593 3.99105 2.44201 4.16665 1.99998 4.16665C1.55795 4.16665 1.13403 3.99105 0.821468 3.67849C0.508908 3.36593 0.333313 2.94201 0.333313 2.49998C0.333313 2.05795 0.508908 1.63403 0.821468 1.32147C1.13403 1.00891 1.55795 0.833313 1.99998 0.833313C2.44201 0.833313 2.86593 1.00891 3.17849 1.32147C3.49105 1.63403 3.66665 2.05795 3.66665 2.49998ZM8.66665 2.49998C8.66665 2.94201 8.49105 3.36593 8.17849 3.67849C7.86593 3.99105 7.44201 4.16665 6.99998 4.16665C6.55795 4.16665 6.13403 3.99105 5.82147 3.67849C5.50891 3.36593 5.33331 2.94201 5.33331 2.49998C5.33331 2.05795 5.50891 1.63403 5.82147 1.32147C6.13403 1.00891 6.55795 0.833313 6.99998 0.833313C7.44201 0.833313 7.86593 1.00891 8.17849 1.32147C8.49105 1.63403 8.66665 2.05795 8.66665 2.49998ZM12 4.16665C12.442 4.16665 12.8659 3.99105 13.1785 3.67849C13.4911 3.36593 13.6666 2.94201 13.6666 2.49998C13.6666 2.05795 13.4911 1.63403 13.1785 1.32147C12.8659 1.00891 12.442 0.833313 12 0.833313C11.558 0.833313 11.134 1.00891 10.8215 1.32147C10.5089 1.63403 10.3333 2.05795 10.3333 2.49998C10.3333 2.94201 10.5089 3.36593 10.8215 3.67849C11.134 3.99105 11.558 4.16665 12 4.16665Z" fill="#8F94A8"/>
</svg>
