<svg width="120" height="119" viewBox="0 0 120 119" fill="none" xmlns="http://www.w3.org/2000/svg">
<g filter="url(#filter0_d_10_169)">
<rect x="16.5" y="12" width="87" height="87" rx="8" fill="white" shape-rendering="crispEdges"/>
<path d="M58.3541 26.5098C58.3541 26.5098 37 25.5799 37 49.038V84.3732C37 84.3732 58.4385 82.9784 58.4385 61.9717C58.4385 40.4578 58.3541 26.5098 58.3541 26.5098Z" fill="#00A45F"/>
<path d="M61.5615 56.8997C61.5615 58.5481 61.5615 60.2388 61.5615 61.9717C61.5615 83.7392 83.0001 84.5 83.0001 84.5V56.8997H61.5615Z" fill="#F9A01B"/>
<path d="M83.0001 53.941V49.038C83.0001 25.3263 61.6459 26.5097 61.6459 26.5097C61.6459 26.5097 61.5615 37.0342 61.5615 53.8987H83.0001V53.941Z" fill="#00A45F"/>
</g>
<defs>
<filter id="filter0_d_10_169" x="0.8" y="0.3" width="118.4" height="118.4" filterUnits="userSpaceOnUse" color-interpolation-filters="sRGB">
<feFlood flood-opacity="0" result="BackgroundImageFix"/>
<feColorMatrix in="SourceAlpha" type="matrix" values="0 0 0 0 0 0 0 0 0 0 0 0 0 0 0 0 0 0 127 0" result="hardAlpha"/>
<feOffset dy="4"/>
<feGaussianBlur stdDeviation="7.85"/>
<feComposite in2="hardAlpha" operator="out"/>
<feColorMatrix type="matrix" values="0 0 0 0 0 0 0 0 0 0 0 0 0 0 0 0 0 0 0.15 0"/>
<feBlend mode="normal" in2="BackgroundImageFix" result="effect1_dropShadow_10_169"/>
<feBlend mode="normal" in="SourceGraphic" in2="effect1_dropShadow_10_169" result="shape"/>
</filter>
</defs>
</svg>
