<svg width="16" height="12" viewBox="0 0 16 12" fill="none" xmlns="http://www.w3.org/2000/svg">
<path d="M1.33331 4.83331L1.03831 5.12831L0.744141 4.83331L1.03831 4.53831L1.33331 4.83331ZM15.0833 11.5C15.0833 11.6105 15.0394 11.7165 14.9613 11.7946C14.8831 11.8727 14.7771 11.9166 14.6666 11.9166C14.5561 11.9166 14.4502 11.8727 14.372 11.7946C14.2939 11.7165 14.25 11.6105 14.25 11.5H15.0833ZM5.20497 9.29498L1.03831 5.12831L1.62831 4.53831L5.79497 8.70498L5.20497 9.29498ZM1.03831 4.53831L5.20497 0.371643L5.79497 0.961643L1.62831 5.12831L1.03831 4.53831ZM1.33331 4.41664H9.66664V5.24998H1.33331V4.41664ZM15.0833 9.83331V11.5H14.25V9.83331H15.0833ZM9.66664 4.41664C11.1032 4.41664 12.481 4.98733 13.4968 6.00315C14.5126 7.01897 15.0833 8.39672 15.0833 9.83331H14.25C14.25 8.61773 13.7671 7.45194 12.9075 6.5924C12.048 5.73286 10.8822 5.24998 9.66664 5.24998V4.41664Z" fill="#00A45F"/>
</svg>
