<svg width="16" height="16" viewBox="0 0 16 16" fill="none" xmlns="http://www.w3.org/2000/svg">
<path d="M3.46 4.25329C3.33334 4.25329 3.2 4.19996 3.10667 4.10663C2.91334 3.91329 2.91334 3.59329 3.10667 3.39996L5.52667 0.979961C5.72 0.786628 6.04 0.786628 6.23334 0.979961C6.42667 1.17329 6.42667 1.49329 6.23334 1.68663L3.81334 4.10663C3.71334 4.19996 3.58667 4.25329 3.46 4.25329Z" fill="#435060"/>
<path d="M12.54 4.25329C12.4133 4.25329 12.2866 4.20663 12.1866 4.10663L9.76664 1.68663C9.57331 1.49329 9.57331 1.17329 9.76664 0.979961C9.95998 0.786628 10.28 0.786628 10.4733 0.979961L12.8933 3.39996C13.0866 3.59329 13.0866 3.91329 12.8933 4.10663C12.8 4.19996 12.6666 4.25329 12.54 4.25329Z" fill="#435060"/>
<path d="M13.4733 7.06657C13.4266 7.06657 13.38 7.06657 13.3333 7.06657H13.18H2.66665C2.19998 7.07324 1.66665 7.07324 1.27998 6.68657C0.973313 6.38657 0.833313 5.9199 0.833313 5.23324C0.833313 3.3999 2.17331 3.3999 2.81331 3.3999H13.1866C13.8266 3.3999 15.1666 3.3999 15.1666 5.23324C15.1666 5.92657 15.0266 6.38657 14.72 6.68657C14.3733 7.03324 13.9066 7.06657 13.4733 7.06657ZM2.81331 6.06657H13.34C13.64 6.07324 13.92 6.07324 14.0133 5.9799C14.06 5.93324 14.16 5.77324 14.16 5.23324C14.16 4.4799 13.9733 4.3999 13.18 4.3999H2.81331C2.01998 4.3999 1.83331 4.4799 1.83331 5.23324C1.83331 5.77324 1.93998 5.93324 1.97998 5.9799C2.07331 6.06657 2.35998 6.06657 2.65331 6.06657H2.81331Z" fill="#435060"/>
<path d="M6.50665 12.2002C6.23332 12.2002 6.00665 11.9735 6.00665 11.7002V9.3335C6.00665 9.06016 6.23332 8.8335 6.50665 8.8335C6.77999 8.8335 7.00665 9.06016 7.00665 9.3335V11.7002C7.00665 11.9802 6.77999 12.2002 6.50665 12.2002Z" fill="#435060"/>
<path d="M9.5733 12.2002C9.29997 12.2002 9.0733 11.9735 9.0733 11.7002V9.3335C9.0733 9.06016 9.29997 8.8335 9.5733 8.8335C9.84664 8.8335 10.0733 9.06016 10.0733 9.3335V11.7002C10.0733 11.9802 9.84664 12.2002 9.5733 12.2002Z" fill="#435060"/>
<path d="M9.92665 15.1665H5.90665C3.51998 15.1665 2.98665 13.7465 2.77998 12.5132L1.83998 6.7465C1.79331 6.47317 1.97998 6.21984 2.25331 6.17317C2.52665 6.1265 2.77998 6.31317 2.82665 6.5865L3.76665 12.3465C3.95998 13.5265 4.35998 14.1665 5.90665 14.1665H9.92665C11.64 14.1665 11.8333 13.5665 12.0533 12.4065L13.1733 6.57317C13.2266 6.29984 13.4866 6.11984 13.76 6.17984C14.0333 6.23317 14.2066 6.49317 14.1533 6.7665L13.0333 12.5998C12.7733 13.9532 12.34 15.1665 9.92665 15.1665Z" fill="#435060"/>
</svg>
