<svg width="32" height="33" viewBox="0 0 32 33" fill="none" xmlns="http://www.w3.org/2000/svg">
<rect y="0.5" width="32" height="32" rx="16" fill="#415BE6" fill-opacity="0.1"/>
<path d="M15.9999 17.746C15.8753 17.746 15.7507 17.7173 15.6357 17.6502L7.17361 12.7531C6.82861 12.5519 6.71359 12.111 6.91484 11.766C7.11609 11.421 7.54734 11.306 7.90192 11.5072L15.9999 16.1935L24.0498 11.536C24.3948 11.3348 24.8357 11.4594 25.0369 11.7948C25.2382 12.1398 25.1136 12.5806 24.7782 12.7818L16.3736 17.6502C16.249 17.7077 16.1244 17.746 15.9999 17.746Z" fill="#415BE6"/>
<path d="M16 26.4284C15.6071 26.4284 15.2812 26.1026 15.2812 25.7097V17.0176C15.2812 16.6247 15.6071 16.2988 16 16.2988C16.3929 16.2988 16.7188 16.6247 16.7188 17.0176V25.7097C16.7188 26.1026 16.3929 26.4284 16 26.4284Z" fill="#415BE6"/>
<path d="M16.0001 26.8019C15.1568 26.8019 14.323 26.6198 13.6618 26.2557L8.54429 23.4094C7.1547 22.6428 6.0718 20.7932 6.0718 19.2023V13.7877C6.0718 12.1969 7.1547 10.3569 8.54429 9.58069L13.6618 6.744C14.9747 6.01567 17.0255 6.01567 18.3385 6.744L23.456 9.59023C24.8455 10.3569 25.9284 12.2065 25.9284 13.7973V19.2119C25.9284 20.8028 24.8455 22.6427 23.456 23.419L18.3385 26.2557C17.6772 26.6198 16.8435 26.8019 16.0001 26.8019ZM16.0001 7.63525C15.3964 7.63525 14.8022 7.75983 14.3614 7.99942L9.24388 10.8456C8.32388 11.3631 7.5093 12.7336 7.5093 13.7973V19.2119C7.5093 20.2661 8.32388 21.6461 9.24388 22.1636L14.3614 25.0098C15.2335 25.4986 16.7668 25.4986 17.6389 25.0098L22.7564 22.1636C23.6764 21.6461 24.4909 20.2757 24.4909 19.2119V13.7973C24.4909 12.7432 23.6764 11.3631 22.7564 10.8456L17.6389 7.99942C17.198 7.75983 16.6039 7.63525 16.0001 7.63525Z" fill="#415BE6"/>
<path d="M20.7918 18.4073C20.3989 18.4073 20.0731 18.0814 20.0731 17.6885V14.6027L11.3331 9.56187C10.9881 9.36062 10.8731 8.91977 11.0743 8.58435C11.2756 8.23935 11.7068 8.12434 12.0518 8.32559L21.1464 13.5773C21.3668 13.7019 21.5106 13.9414 21.5106 14.2002V17.7077C21.5106 18.0815 21.1848 18.4073 20.7918 18.4073Z" fill="#415BE6"/>
</svg>
