<svg width="82" height="73" viewBox="0 0 82 73" fill="none" xmlns="http://www.w3.org/2000/svg">
<path d="M0 60C0 60.657 0 61.3308 0 62.0214C0 70.6968 8 71 8 71V60H0Z" fill="#00A45F" fill-opacity="0.3"/>
<circle cx="72.5" cy="13.5" r="9.5" fill="#FDD9A4"/>
<path d="M56.7483 35.9436C45.1918 31.8424 38.0715 39.1459 44.0786 44.5258M69.9264 55.4573C67.7085 58.1637 63.4738 60.0744 55.9491 59.6205C48.8202 59.1905 45.1626 56.7784 43.5754 53.884M69.9264 55.4573C70.9915 60.3673 69.463 69.9796 55.201 68.703C51.6858 68.3884 49.0642 67.6082 47.1421 66.5422M69.9264 55.4573C72.4289 52.4035 72.1076 47.7882 71.2895 44.9316M43.5754 53.884C41.8518 50.7408 42.706 46.8924 44.0786 44.5258M43.5754 53.884C41.9269 57.3526 41.2658 63.2833 47.1421 66.5422M24.4634 30.1736C25.6294 30.1736 26.6925 30.0384 27.6658 29.7872M47.5101 66.4287C47.3876 66.4674 47.265 66.5052 47.1421 66.5422M27.6658 29.7872C40.7741 26.4043 37.3854 0.939136 50.0223 2.03431C63.0011 3.1591 51.6083 27.924 51.6083 27.924C59.0946 26.8179 73.0744 28.5201 73.487 37.9683C73.6162 40.9266 72.7741 43.2156 71.2895 44.9316M27.6658 29.7872C27.6658 29.7872 26.3338 25.3385 22.646 25.05C9.24253 24.0015 12.0868 68.2538 21.4558 70.6621C28.3904 72.4446 30.3526 66.5942 30.3526 66.5942M30.3526 66.5942C28.2865 65.8251 26.5603 64.7259 25.1624 63.3222M30.3526 66.5942C34.8152 68.2554 41.207 68.3309 47.1421 66.5422M71.2895 44.9316C65.3203 51.8317 50.434 50.2176 44.0786 44.5258" stroke="#00A45F" stroke-width="3"/>
</svg>
