<svg width="172" height="41" viewBox="0 0 172 41" fill="none" xmlns="http://www.w3.org/2000/svg">
<path d="M14.0514 1.45356C14.0514 1.45356 0 0.844748 0 16.2036V39.3388C0 39.3388 14.1069 38.4256 14.1069 24.6718C14.1069 10.5859 14.0514 1.45356 14.0514 1.45356Z" fill="#00A45F"/>
<path d="M16.1619 21.3509C16.1619 22.4302 16.1619 23.5371 16.1619 24.6718C16.1619 38.9237 30.2688 39.4218 30.2688 39.4218V21.3509H16.1619Z" fill="#F9A01B"/>
<path d="M30.2688 19.4138V16.2036C30.2688 0.678702 16.2174 1.45356 16.2174 1.45356C16.2174 1.45356 16.1619 8.3443 16.1619 19.3861H30.2688V19.4138Z" fill="#00A45F"/>
<path d="M62.5092 4.7168C64.4795 5.76166 66.0319 7.31402 67.1365 9.34404C68.241 11.3741 68.7784 13.8519 68.7784 16.7178V32.5101H62.0913V25.5842H48.8663V32.5101H42.2688V16.7178C42.2688 13.822 42.8062 11.3741 43.9107 9.34404C45.0153 7.31402 46.5378 5.76166 48.538 4.7168C50.5083 3.67194 52.8368 3.13458 55.5236 3.13458C58.1805 3.13458 60.5091 3.67194 62.5092 4.7168ZM62.0913 20.2106V16.0909C62.0913 13.7026 61.4942 11.8816 60.33 10.6576C59.1358 9.4336 57.5238 8.80668 55.4937 8.80668C53.4339 8.80668 51.8218 9.4336 50.6575 10.6576C49.4933 11.8816 48.8962 13.7026 48.8962 16.0909V20.2106H62.0913Z" fill="#343434"/>
<path d="M97.8255 10.3292V28.8083C97.8255 32.8683 96.7806 35.9134 94.6611 37.8837C92.5415 39.854 89.4368 40.869 85.3767 40.869C83.2273 40.869 81.1973 40.6003 79.2568 40.0928C77.3164 39.5554 75.7342 38.8091 74.4803 37.824L77.0477 33.1967C77.9731 33.9729 79.1673 34.57 80.6002 35.0476C82.0332 35.4954 83.4661 35.7342 84.8991 35.7342C87.1381 35.7342 88.78 35.2267 89.8248 34.2416C90.8697 33.2266 91.4071 31.7041 91.4071 29.674V28.7187C89.7353 30.5696 87.3769 31.4951 84.3916 31.4951C82.3616 31.4951 80.4808 31.0473 78.809 30.1517C77.1074 29.2561 75.764 28.0023 74.7789 26.3902C73.7937 24.7781 73.2862 22.8974 73.2862 20.7778C73.2862 18.6582 73.7937 16.7775 74.7789 15.1654C75.764 13.5533 77.1074 12.2697 78.809 11.4039C80.5107 10.5083 82.3616 10.0605 84.3916 10.0605C87.6157 10.0605 90.0637 11.1054 91.7354 13.2249V10.3889H97.8255V10.3292ZM89.8248 24.6587C90.8996 23.6437 91.4668 22.3302 91.4668 20.7181C91.4668 19.106 90.9294 17.7925 89.8248 16.7775C88.7501 15.7625 87.347 15.2848 85.6454 15.2848C83.9438 15.2848 82.5407 15.7923 81.4361 16.7775C80.3315 17.7925 79.7942 19.106 79.7942 20.7181C79.7942 22.3302 80.3315 23.6437 81.4361 24.6587C82.5407 25.6737 83.9438 26.1514 85.6454 26.1514C87.347 26.1514 88.7501 25.6737 89.8248 24.6587Z" fill="#343434"/>
<path d="M113.051 10.8068C114.364 10.2695 115.857 9.97095 117.558 9.97095V15.9117C116.842 15.852 116.364 15.8222 116.125 15.8222C114.275 15.8222 112.842 16.3297 111.797 17.3745C110.752 18.4194 110.215 19.9419 110.215 22.0018V32.4802H103.796V10.2695H109.946V13.1951C110.722 12.1801 111.767 11.3741 113.051 10.8068Z" fill="#343434"/>
<path d="M121.738 6.17961C120.992 5.49298 120.633 4.62724 120.633 3.61223C120.633 2.59723 120.992 1.73148 121.738 1.04486C122.484 0.358238 123.439 0 124.634 0C125.828 0 126.783 0.328381 127.529 0.98515C128.276 1.64192 128.634 2.47781 128.634 3.46297C128.634 4.53768 128.276 5.43327 127.529 6.1199C126.783 6.80652 125.828 7.16476 124.634 7.16476C123.469 7.22446 122.484 6.86623 121.738 6.17961ZM121.409 10.3292H127.858V32.5399H121.409V10.3292Z" fill="#343434"/>
<path d="M140.098 10.8068H145.8V15.7625H140.277V32.5101H133.828V9.82168C133.828 7.28416 134.575 5.284 136.067 3.79134C137.56 2.29869 139.68 1.55236 142.396 1.55236C143.352 1.55236 144.277 1.64192 145.143 1.85089C146.009 2.05986 146.725 2.35839 147.322 2.74648L145.62 7.40357C144.874 6.89606 144.008 6.62739 143.023 6.62739C141.083 6.62739 140.098 7.7021 140.098 9.85153V10.8068Z" fill="#343434"/>
<path d="M171.384 10.3292V28.8083C171.384 32.8683 170.339 35.9133 168.279 37.8836C166.219 39.8539 163.204 40.869 159.293 40.869C157.203 40.869 155.233 40.6003 153.382 40.0928C151.531 39.5554 149.979 38.8091 148.695 37.8239L151.263 33.1967C152.188 33.9729 153.352 34.5699 154.696 35.0177C156.039 35.4655 157.412 35.6745 158.786 35.6745C160.935 35.6745 162.487 35.167 163.502 34.1818C164.488 33.1967 164.995 31.6742 164.995 29.6442V28.8978C164.159 29.7337 163.204 30.3606 162.07 30.8084C160.935 31.2562 159.741 31.4652 158.427 31.4652C155.502 31.4652 153.203 30.6293 151.501 28.9575C149.8 27.2858 148.934 24.808 148.934 21.4644V10.3292H155.382V20.5091C155.382 24.1213 156.875 25.9125 159.89 25.9125C161.443 25.9125 162.667 25.405 163.592 24.4199C164.517 23.4049 164.995 21.9122 164.995 19.9419V10.3292H171.384Z" fill="#343434"/>
</svg>
