<svg width="16" height="15" viewBox="0 0 16 15" fill="none" xmlns="http://www.w3.org/2000/svg">
<path d="M11.7333 14.5402H4.26664C3.05331 14.5402 1.94664 13.6069 1.74664 12.4135L0.859974 7.10021C0.713307 6.27354 1.11997 5.21354 1.77997 4.68687L6.39997 0.986874C7.29331 0.266874 8.69997 0.27354 9.59997 0.99354L14.22 4.68687C14.8733 5.21354 15.2733 6.27354 15.14 7.10021L14.2533 12.4069C14.0533 13.5869 12.92 14.5402 11.7333 14.5402ZM7.99331 1.45354C7.63997 1.45354 7.28664 1.56021 7.02664 1.76687L2.40664 5.47354C2.03331 5.77354 1.76664 6.46687 1.84664 6.94021L2.73331 12.2469C2.85331 12.9469 3.55331 13.5402 4.26664 13.5402H11.7333C12.4466 13.5402 13.1466 12.9469 13.2666 12.2402L14.1533 6.93354C14.2266 6.46687 13.96 5.76021 13.5933 5.46687L8.97331 1.77354C8.70664 1.56021 8.34664 1.45354 7.99331 1.45354Z" fill="#435060"/>
</svg>
