<svg width="24" height="25" viewBox="0 0 24 25" fill="none" xmlns="http://www.w3.org/2000/svg">
<rect y="0.5" width="24" height="24" rx="12" fill="#00A45F" fill-opacity="0.1"/>
<path d="M7.46 8.75329C7.33333 8.75329 7.2 8.69996 7.10667 8.60663C6.91333 8.41329 6.91333 8.09329 7.10667 7.89996L9.52667 5.47996C9.72 5.28663 10.04 5.28663 10.2333 5.47996C10.4267 5.67329 10.4267 5.99329 10.2333 6.18663L7.81333 8.60663C7.71333 8.69996 7.58667 8.75329 7.46 8.75329Z" fill="#00A45F"/>
<path d="M16.54 8.75329C16.4133 8.75329 16.2867 8.70663 16.1867 8.60663L13.7667 6.18663C13.5733 5.99329 13.5733 5.67329 13.7667 5.47996C13.96 5.28663 14.28 5.28663 14.4733 5.47996L16.8933 7.89996C17.0867 8.09329 17.0867 8.41329 16.8933 8.60663C16.8 8.69996 16.6667 8.75329 16.54 8.75329Z" fill="#00A45F"/>
<path d="M17.4733 11.5666C17.4267 11.5666 17.38 11.5666 17.3333 11.5666H17.18H6.66667C6.2 11.5732 5.66667 11.5732 5.28 11.1866C4.97333 10.8866 4.83333 10.4199 4.83333 9.73324C4.83333 7.8999 6.17333 7.8999 6.81333 7.8999H17.1867C17.8267 7.8999 19.1667 7.8999 19.1667 9.73324C19.1667 10.4266 19.0267 10.8866 18.72 11.1866C18.3733 11.5332 17.9067 11.5666 17.4733 11.5666ZM6.81333 10.5666H17.34C17.64 10.5732 17.92 10.5732 18.0133 10.4799C18.06 10.4332 18.16 10.2732 18.16 9.73324C18.16 8.9799 17.9733 8.8999 17.18 8.8999H6.81333C6.02 8.8999 5.83333 8.9799 5.83333 9.73324C5.83333 10.2732 5.94 10.4332 5.98 10.4799C6.07333 10.5666 6.36 10.5666 6.65333 10.5666H6.81333Z" fill="#00A45F"/>
<path d="M10.5067 16.6999C10.2333 16.6999 10.0067 16.4733 10.0067 16.1999V13.8333C10.0067 13.5599 10.2333 13.3333 10.5067 13.3333C10.78 13.3333 11.0067 13.5599 11.0067 13.8333V16.1999C11.0067 16.4799 10.78 16.6999 10.5067 16.6999Z" fill="#00A45F"/>
<path d="M13.5733 16.6999C13.3 16.6999 13.0733 16.4733 13.0733 16.1999V13.8333C13.0733 13.5599 13.3 13.3333 13.5733 13.3333C13.8467 13.3333 14.0733 13.5599 14.0733 13.8333V16.1999C14.0733 16.4799 13.8467 16.6999 13.5733 16.6999Z" fill="#00A45F"/>
<path d="M13.9267 19.6667H9.90667C7.52 19.6667 6.98667 18.2467 6.78 17.0134L5.84 11.2467C5.79333 10.9734 5.98 10.7201 6.25333 10.6734C6.52667 10.6267 6.78 10.8134 6.82667 11.0867L7.76667 16.8467C7.96 18.0267 8.36 18.6667 9.90667 18.6667H13.9267C15.64 18.6667 15.8333 18.0667 16.0533 16.9067L17.1733 11.0734C17.2267 10.8001 17.4867 10.6201 17.76 10.6801C18.0333 10.7334 18.2067 10.9934 18.1533 11.2667L17.0333 17.1001C16.7733 18.4534 16.34 19.6667 13.9267 19.6667Z" fill="#00A45F"/>
</svg>
