<svg width="24" height="25" viewBox="0 0 24 25" fill="none" xmlns="http://www.w3.org/2000/svg">
<rect y="0.5" width="24" height="24" rx="12" fill="#C28532" fill-opacity="0.1"/>
<path d="M12.6666 14.3334H5.33331C5.05998 14.3334 4.83331 14.1067 4.83331 13.8334V9.58008C4.83331 9.36674 4.96664 9.18006 5.15997 9.10673C5.35997 9.0334 5.57998 9.09342 5.71332 9.25342C6.11998 9.74008 6.75332 10.0134 7.37998 9.99341C7.91332 9.98007 8.40664 9.78009 8.77997 9.42676C8.9533 9.28009 9.09331 9.10675 9.19997 8.91341C9.40664 8.56008 9.50665 8.1734 9.49998 7.78007C9.48665 7.16674 9.22 6.60674 8.76666 6.20007C8.60666 6.06007 8.55331 5.84006 8.62665 5.64673C8.69998 5.4534 8.88666 5.32007 9.09332 5.32007H14C14.2733 5.32007 14.5 5.54674 14.5 5.82007V12.4867C14.5 13.5134 13.68 14.3334 12.6666 14.3334ZM5.83331 13.3334H12.6666C13.1266 13.3334 13.5 12.9601 13.5 12.5001V6.33341H10.1266C10.36 6.76675 10.4866 7.25342 10.5 7.76009C10.5133 8.34009 10.3666 8.91341 10.0733 9.41341C9.9133 9.70008 9.69331 9.97342 9.45331 10.1734C8.91997 10.6801 8.18664 10.9801 7.40664 11.0001C6.8533 11.0201 6.30665 10.8801 5.83999 10.6267V13.3334H5.83331Z" fill="#C28532"/>
<path d="M16.6666 18.3333H16C15.7266 18.3333 15.5 18.1066 15.5 17.8333C15.5 17.3733 15.1266 16.9999 14.6666 16.9999C14.2066 16.9999 13.8333 17.3733 13.8333 17.8333C13.8333 18.1066 13.6066 18.3333 13.3333 18.3333H10.6666C10.3933 18.3333 10.1666 18.1066 10.1666 17.8333C10.1666 17.3733 9.79331 16.9999 9.33331 16.9999C8.87331 16.9999 8.49998 17.3733 8.49998 17.8333C8.49998 18.1066 8.27331 18.3333 7.99998 18.3333H7.33331C5.95331 18.3333 4.83331 17.2133 4.83331 15.8333V13.8333C4.83331 13.5599 5.05998 13.3333 5.33331 13.3333H12.6666C13.1266 13.3333 13.5 12.9599 13.5 12.4999V7.83325C13.5 7.55992 13.7266 7.33325 14 7.33325H15.2267C15.8867 7.33325 16.4933 7.6866 16.82 8.25993L17.96 10.2533C18.0466 10.4066 18.0466 10.5999 17.96 10.7533C17.8733 10.9066 17.7066 10.9999 17.5266 10.9999H16.6666C16.5733 10.9999 16.5 11.0733 16.5 11.1666V13.1666C16.5 13.2599 16.5733 13.3333 16.6666 13.3333H18.6666C18.94 13.3333 19.1666 13.5599 19.1666 13.8333V15.8333C19.1666 17.2133 18.0466 18.3333 16.6666 18.3333ZM16.4333 17.3333H16.6666C17.4933 17.3333 18.1666 16.6599 18.1666 15.8333V14.3333H16.6666C16.0266 14.3333 15.5 13.8066 15.5 13.1666V11.1666C15.5 10.5266 16.02 9.99992 16.6666 9.99992L15.9533 8.75326C15.8066 8.49326 15.5267 8.33325 15.2267 8.33325H14.5V12.4999C14.5 13.5133 13.68 14.3333 12.6666 14.3333H5.83331V15.8333C5.83331 16.6599 6.50665 17.3333 7.33331 17.3333H7.56663C7.78663 16.5666 8.49331 15.9999 9.33331 15.9999C10.1733 15.9999 10.88 16.5666 11.1 17.3333H12.9066C13.1266 16.5666 13.8333 15.9999 14.6733 15.9999C15.5133 15.9999 16.2133 16.5666 16.4333 17.3333Z" fill="#C28532"/>
<path d="M9.33333 19.6667C8.32 19.6667 7.5 18.8467 7.5 17.8333C7.5 16.82 8.32 16 9.33333 16C10.3467 16 11.1667 16.82 11.1667 17.8333C11.1667 18.8467 10.3467 19.6667 9.33333 19.6667ZM9.33333 17C8.87333 17 8.5 17.3733 8.5 17.8333C8.5 18.2933 8.87333 18.6667 9.33333 18.6667C9.79333 18.6667 10.1667 18.2933 10.1667 17.8333C10.1667 17.3733 9.79333 17 9.33333 17Z" fill="#C28532"/>
<path d="M14.6666 19.6667C13.6533 19.6667 12.8333 18.8467 12.8333 17.8333C12.8333 16.82 13.6533 16 14.6666 16C15.68 16 16.5 16.82 16.5 17.8333C16.5 18.8467 15.68 19.6667 14.6666 19.6667ZM14.6666 17C14.2066 17 13.8333 17.3733 13.8333 17.8333C13.8333 18.2933 14.2066 18.6667 14.6666 18.6667C15.1266 18.6667 15.5 18.2933 15.5 17.8333C15.5 17.3733 15.1266 17 14.6666 17Z" fill="#C28532"/>
<path d="M18.6667 14.3333H16.6667C16.0267 14.3333 15.5 13.8067 15.5 13.1667V11.1667C15.5 10.5267 16.0267 10 16.6667 10H17.5267C17.7067 10 17.8733 10.0933 17.96 10.2533L19.1 12.2533C19.14 12.3267 19.1667 12.4133 19.1667 12.5V13.8333C19.1667 14.1067 18.94 14.3333 18.6667 14.3333ZM16.6667 11C16.5733 11 16.5 11.0733 16.5 11.1667V13.1667C16.5 13.26 16.5733 13.3333 16.6667 13.3333H18.1667V12.6333L17.2333 11H16.6667Z" fill="#C28532"/>
<path d="M7.33335 11.0001C5.58669 11.0001 4.16669 9.58008 4.16669 7.83341C4.16669 6.86008 4.60004 5.96007 5.35337 5.36007C5.91337 4.9134 6.62002 4.66675 7.33335 4.66675C9.08002 4.66675 10.5 6.08675 10.5 7.83341C10.5 8.74008 10.1067 9.60675 9.42002 10.2067C8.84002 10.7201 8.10002 11.0001 7.33335 11.0001ZM7.33335 5.66675C6.84002 5.66675 6.37333 5.8334 5.98 6.14673C5.46667 6.5534 5.16669 7.17341 5.16669 7.83341C5.16669 9.02675 6.14002 10.0001 7.33335 10.0001C7.85335 10.0001 8.36004 9.80675 8.7667 9.46008C9.23337 9.04675 9.50002 8.46008 9.50002 7.83341C9.50002 6.64008 8.52669 5.66675 7.33335 5.66675Z" fill="#C28532"/>
<path d="M6.66658 9C6.49991 9 6.33323 8.91334 6.2399 8.76001C6.0999 8.52001 6.17324 8.21332 6.41324 8.07332L7.00658 7.72001V7C7.00658 6.72667 7.23325 6.5 7.50658 6.5C7.77992 6.5 8.00658 6.72667 8.00658 7V8C8.00658 8.17333 7.91326 8.34001 7.76659 8.42668L6.93326 8.92668C6.83993 8.98001 6.75324 9 6.66658 9Z" fill="#C28532"/>
</svg>
