<svg width="17" height="16" viewBox="0 0 17 16" fill="none" xmlns="http://www.w3.org/2000/svg">
<path d="M8.09992 15.1667H5.56659C2.63992 15.1667 1.33325 13.86 1.33325 10.9334V8.40002C1.33325 5.47335 2.63992 4.16669 5.56659 4.16669H7.56659C7.83992 4.16669 8.06659 4.39335 8.06659 4.66669C8.06659 4.94002 7.83992 5.16669 7.56659 5.16669H5.56659C3.17992 5.16669 2.33325 6.01335 2.33325 8.40002V10.9334C2.33325 13.32 3.17992 14.1667 5.56659 14.1667H8.09992C10.4866 14.1667 11.3333 13.32 11.3333 10.9334V8.93335C11.3333 8.66002 11.5599 8.43335 11.8333 8.43335C12.1066 8.43335 12.3333 8.66002 12.3333 8.93335V10.9334C12.3333 13.86 11.0266 15.1667 8.09992 15.1667Z" fill="#00A45F"/>
<path d="M11.8333 9.43335H9.69998C7.82665 9.43335 7.06665 8.67335 7.06665 6.80001V4.66668C7.06665 4.46668 7.18665 4.28001 7.37332 4.20668C7.55998 4.12668 7.77332 4.17335 7.91998 4.31335L12.1867 8.58001C12.3267 8.72001 12.3733 8.94001 12.2933 9.12668C12.22 9.31335 12.0333 9.43335 11.8333 9.43335ZM8.06665 5.87335V6.80001C8.06665 8.12668 8.37332 8.43335 9.69998 8.43335H10.6266L8.06665 5.87335Z" fill="#00A45F"/>
<path d="M10.9001 1.83331H8.2334C7.96007 1.83331 7.7334 1.60665 7.7334 1.33331C7.7334 1.05998 7.96007 0.833313 8.2334 0.833313H10.9001C11.1734 0.833313 11.4001 1.05998 11.4001 1.33331C11.4001 1.60665 11.1734 1.83331 10.9001 1.83331Z" fill="#00A45F"/>
<path d="M5.16675 3.83331C4.89341 3.83331 4.66675 3.60665 4.66675 3.33331C4.66675 1.95331 5.78675 0.833313 7.16675 0.833313H8.91341C9.18675 0.833313 9.41341 1.05998 9.41341 1.33331C9.41341 1.60665 9.18675 1.83331 8.91341 1.83331H7.16675C6.34008 1.83331 5.66675 2.50665 5.66675 3.33331C5.66675 3.60665 5.44008 3.83331 5.16675 3.83331Z" fill="#00A45F"/>
<path d="M13.2932 11.8333C13.0199 11.8333 12.7932 11.6066 12.7932 11.3333C12.7932 11.06 13.0199 10.8333 13.2932 10.8333C14.0532 10.8333 14.6665 10.2133 14.6665 9.45998V5.33331C14.6665 5.05998 14.8932 4.83331 15.1665 4.83331C15.4399 4.83331 15.6665 5.05998 15.6665 5.33331V9.45998C15.6665 10.7666 14.5999 11.8333 13.2932 11.8333Z" fill="#00A45F"/>
<path d="M15.1667 5.83331H13.1667C11.3934 5.83331 10.6667 5.10664 10.6667 3.33331V1.33331C10.6667 1.13331 10.7867 0.946639 10.9734 0.873305C11.1601 0.793305 11.3734 0.839972 11.5201 0.979972L15.5201 4.97997C15.6601 5.11997 15.7067 5.33997 15.6267 5.52664C15.5534 5.71331 15.3667 5.83331 15.1667 5.83331ZM11.6667 2.53997V3.33331C11.6667 4.55331 11.9467 4.83331 13.1667 4.83331H13.9601L11.6667 2.53997Z" fill="#00A45F"/>
</svg>
