<svg width="36" height="36" viewBox="0 0 36 36" fill="none" xmlns="http://www.w3.org/2000/svg">
<rect width="36" height="36" rx="18" fill="#415BE6" fill-opacity="0.1"/>
<path d="M12.3249 13.3167C12.1666 13.3167 11.9999 13.25 11.8833 13.1333C11.6416 12.8917 11.6416 12.4917 11.8833 12.25L14.9083 9.22501C15.1499 8.98335 15.5499 8.98335 15.7916 9.22501C16.0333 9.46668 16.0333 9.86668 15.7916 10.1083L12.7666 13.1333C12.6416 13.25 12.4833 13.3167 12.3249 13.3167Z" fill="#415BE6"/>
<path d="M23.675 13.3167C23.5167 13.3167 23.3584 13.2583 23.2334 13.1333L20.2083 10.1083C19.9667 9.86668 19.9667 9.46668 20.2083 9.22501C20.45 8.98335 20.85 8.98335 21.0917 9.22501L24.1167 12.25C24.3584 12.4917 24.3584 12.8917 24.1167 13.1333C24 13.25 23.8333 13.3167 23.675 13.3167Z" fill="#415BE6"/>
<path d="M24.8416 16.8333C24.7833 16.8333 24.725 16.8333 24.6666 16.8333H24.475H11.3333C10.75 16.8417 10.0833 16.8417 9.59996 16.3583C9.21663 15.9833 9.04163 15.4 9.04163 14.5417C9.04163 12.25 10.7166 12.25 11.5166 12.25H24.4833C25.2833 12.25 26.9583 12.25 26.9583 14.5417C26.9583 15.4083 26.7833 15.9833 26.4 16.3583C25.9666 16.7917 25.3833 16.8333 24.8416 16.8333ZM11.5166 15.5833H24.675C25.05 15.5917 25.4 15.5917 25.5166 15.475C25.575 15.4167 25.7 15.2167 25.7 14.5417C25.7 13.6 25.4666 13.5 24.475 13.5H11.5166C10.525 13.5 10.2916 13.6 10.2916 14.5417C10.2916 15.2167 10.425 15.4167 10.475 15.475C10.5916 15.5833 10.95 15.5833 11.3166 15.5833H11.5166Z" fill="#415BE6"/>
<path d="M16.1333 23.25C15.7916 23.25 15.5083 22.9667 15.5083 22.625V19.6667C15.5083 19.325 15.7916 19.0417 16.1333 19.0417C16.475 19.0417 16.7583 19.325 16.7583 19.6667V22.625C16.7583 22.975 16.475 23.25 16.1333 23.25Z" fill="#415BE6"/>
<path d="M19.9667 23.25C19.625 23.25 19.3417 22.9667 19.3417 22.625V19.6667C19.3417 19.325 19.625 19.0417 19.9667 19.0417C20.3083 19.0417 20.5917 19.325 20.5917 19.6667V22.625C20.5917 22.975 20.3083 23.25 19.9667 23.25Z" fill="#415BE6"/>
<path d="M20.4083 26.9583H15.3833C12.4 26.9583 11.7333 25.1833 11.475 23.6416L10.3 16.4333C10.2416 16.0916 10.475 15.775 10.8166 15.7166C11.1583 15.6583 11.475 15.8916 11.5333 16.2333L12.7083 23.4333C12.95 24.9083 13.45 25.7083 15.3833 25.7083H20.4083C22.55 25.7083 22.7916 24.9583 23.0666 23.5083L24.4666 16.2166C24.5333 15.875 24.8583 15.65 25.2 15.725C25.5416 15.7916 25.7583 16.1166 25.6916 16.4583L24.2916 23.75C23.9666 25.4416 23.425 26.9583 20.4083 26.9583Z" fill="#415BE6"/>
</svg>
