<svg width="16" height="16" viewBox="0 0 16 16" fill="none" xmlns="http://www.w3.org/2000/svg">
<path d="M10.6667 15.1668H5.33335C3.32002 15.1668 2.16669 14.0135 2.16669 12.0002V5.50016C2.16669 3.40016 3.23335 2.3335 5.33335 2.3335C5.60669 2.3335 5.83335 2.56016 5.83335 2.8335C5.83335 3.10016 5.94002 3.35349 6.12669 3.54016C6.31335 3.72683 6.56669 3.8335 6.83335 3.8335H9.16669C9.72002 3.8335 10.1667 3.38683 10.1667 2.8335C10.1667 2.56016 10.3934 2.3335 10.6667 2.3335C12.7667 2.3335 13.8334 3.40016 13.8334 5.50016V12.0002C13.8334 14.0135 12.68 15.1668 10.6667 15.1668ZM4.9 3.34683C3.84667 3.4335 3.16669 3.90683 3.16669 5.50016V12.0002C3.16669 13.4802 3.85335 14.1668 5.33335 14.1668H10.6667C12.1467 14.1668 12.8334 13.4802 12.8334 12.0002V5.50016C12.8334 3.90683 12.1534 3.44017 11.1 3.34683C10.8734 4.20017 10.0934 4.8335 9.16669 4.8335H6.83335C6.30002 4.8335 5.80002 4.62683 5.42002 4.24683C5.16669 3.99349 4.99334 3.68683 4.9 3.34683Z" fill="#435060"/>
<path d="M9.16665 4.8335H6.83331C6.29998 4.8335 5.79998 4.62683 5.41998 4.24683C5.03998 3.86683 4.83331 3.36683 4.83331 2.8335C4.83331 1.7335 5.73331 0.833496 6.83331 0.833496H9.16665C9.69998 0.833496 10.2 1.04017 10.58 1.42017C10.96 1.80017 11.1666 2.30016 11.1666 2.8335C11.1666 3.9335 10.2666 4.8335 9.16665 4.8335ZM6.83331 1.8335C6.27998 1.8335 5.83331 2.28016 5.83331 2.8335C5.83331 3.10016 5.93998 3.35349 6.12665 3.54016C6.31331 3.72683 6.56665 3.8335 6.83331 3.8335H9.16665C9.71998 3.8335 10.1666 3.38683 10.1666 2.8335C10.1666 2.56683 10.06 2.3135 9.87331 2.12683C9.68664 1.94016 9.43331 1.8335 9.16665 1.8335H6.83331Z" fill="#435060"/>
<path d="M7.99998 9.1665H5.33331C5.05998 9.1665 4.83331 8.93984 4.83331 8.6665C4.83331 8.39317 5.05998 8.1665 5.33331 8.1665H7.99998C8.27331 8.1665 8.49998 8.39317 8.49998 8.6665C8.49998 8.93984 8.27331 9.1665 7.99998 9.1665Z" fill="#435060"/>
<path d="M10.6666 11.8335H5.33331C5.05998 11.8335 4.83331 11.6068 4.83331 11.3335C4.83331 11.0602 5.05998 10.8335 5.33331 10.8335H10.6666C10.94 10.8335 11.1666 11.0602 11.1666 11.3335C11.1666 11.6068 10.94 11.8335 10.6666 11.8335Z" fill="#435060"/>
</svg>
