<svg width="24" height="25" viewBox="0 0 24 25" fill="none" xmlns="http://www.w3.org/2000/svg">
<rect y="0.5" width="24" height="24" rx="12" fill="#CD266C" fill-opacity="0.1"/>
<path d="M7.46 8.75332C7.33334 8.75332 7.2 8.69999 7.10667 8.60666C6.91334 8.41332 6.91334 8.09332 7.10667 7.89999L9.52667 5.47999C9.72 5.28666 10.04 5.28666 10.2333 5.47999C10.4267 5.67332 10.4267 5.99332 10.2333 6.18666L7.81334 8.60666C7.71334 8.69999 7.58667 8.75332 7.46 8.75332Z" fill="#CD266C"/>
<path d="M16.54 8.75332C16.4133 8.75332 16.2867 8.70666 16.1867 8.60666L13.7667 6.18666C13.5733 5.99332 13.5733 5.67332 13.7667 5.47999C13.96 5.28666 14.28 5.28666 14.4733 5.47999L16.8933 7.89999C17.0867 8.09332 17.0867 8.41332 16.8933 8.60666C16.8 8.69999 16.6667 8.75332 16.54 8.75332Z" fill="#CD266C"/>
<path d="M17.4733 11.5667C17.4267 11.5667 17.38 11.5667 17.3333 11.5667H17.18H6.66668C6.20001 11.5733 5.66668 11.5733 5.28001 11.1867C4.97334 10.8867 4.83334 10.42 4.83334 9.73333C4.83334 7.89999 6.17334 7.89999 6.81334 7.89999H17.1867C17.8267 7.89999 19.1667 7.89999 19.1667 9.73333C19.1667 10.4267 19.0267 10.8867 18.72 11.1867C18.3733 11.5333 17.9067 11.5667 17.4733 11.5667ZM6.81334 10.5667H17.34C17.64 10.5733 17.92 10.5733 18.0133 10.48C18.06 10.4333 18.16 10.2733 18.16 9.73333C18.16 8.97999 17.9733 8.89999 17.18 8.89999H6.81334C6.02001 8.89999 5.83334 8.97999 5.83334 9.73333C5.83334 10.2733 5.94001 10.4333 5.98001 10.48C6.07334 10.5667 6.36001 10.5667 6.65334 10.5667H6.81334Z" fill="#CD266C"/>
<path d="M10.5067 16.7C10.2333 16.7 10.0067 16.4733 10.0067 16.2V13.8333C10.0067 13.56 10.2333 13.3333 10.5067 13.3333C10.78 13.3333 11.0067 13.56 11.0067 13.8333V16.2C11.0067 16.48 10.78 16.7 10.5067 16.7Z" fill="#CD266C"/>
<path d="M13.5733 16.7C13.3 16.7 13.0733 16.4733 13.0733 16.2V13.8333C13.0733 13.56 13.3 13.3333 13.5733 13.3333C13.8467 13.3333 14.0733 13.56 14.0733 13.8333V16.2C14.0733 16.48 13.8467 16.7 13.5733 16.7Z" fill="#CD266C"/>
<path d="M13.9267 19.6667H9.90668C7.52001 19.6667 6.98668 18.2467 6.78001 17.0133L5.84001 11.2467C5.79334 10.9733 5.98001 10.72 6.25334 10.6733C6.52668 10.6267 6.78001 10.8133 6.82668 11.0867L7.76668 16.8467C7.96001 18.0267 8.36001 18.6667 9.90668 18.6667H13.9267C15.64 18.6667 15.8333 18.0667 16.0533 16.9067L17.1733 11.0733C17.2267 10.8 17.4867 10.62 17.76 10.68C18.0333 10.7333 18.2067 10.9933 18.1533 11.2667L17.0333 17.1C16.7733 18.4533 16.34 19.6667 13.9267 19.6667Z" fill="#CD266C"/>
</svg>
