<svg width="16" height="16" viewBox="0 0 16 16" fill="none" xmlns="http://www.w3.org/2000/svg">
<path d="M11.9999 5.27318C11.9799 5.27318 11.9665 5.27318 11.9465 5.27318H11.9132C10.6532 5.23318 9.7132 4.25985 9.7132 3.05984C9.7132 1.83318 10.7132 0.839844 11.9332 0.839844C13.1532 0.839844 14.1532 1.83984 14.1532 3.05984C14.1465 4.26651 13.2065 5.23985 12.0065 5.27985C12.0065 5.27318 12.0065 5.27318 11.9999 5.27318ZM11.9332 1.83318C11.2599 1.83318 10.7132 2.37985 10.7132 3.05318C10.7132 3.71318 11.2265 4.24652 11.8865 4.27318C11.8932 4.26652 11.9465 4.26652 12.0065 4.27318C12.6532 4.23985 13.1532 3.70652 13.1599 3.05318C13.1599 2.37985 12.6132 1.83318 11.9332 1.83318Z" fill="#435060"/>
<path d="M12.0067 10.1866C11.7467 10.1866 11.4867 10.1666 11.2267 10.1199C10.9534 10.0733 10.7734 9.81327 10.82 9.53994C10.8667 9.2666 11.1267 9.0866 11.4 9.13327C12.22 9.27327 13.0867 9.11994 13.6667 8.73327C13.98 8.52661 14.1467 8.2666 14.1467 8.0066C14.1467 7.7466 13.9734 7.49327 13.6667 7.2866C13.0867 6.89993 12.2067 6.7466 11.38 6.89327C11.1067 6.9466 10.8467 6.75993 10.8 6.4866C10.7534 6.21327 10.9334 5.95327 11.2067 5.9066C12.2934 5.71327 13.42 5.91993 14.22 6.45327C14.8067 6.8466 15.1467 7.4066 15.1467 8.0066C15.1467 8.59993 14.8134 9.16661 14.22 9.56661C13.6134 9.96661 12.8267 10.1866 12.0067 10.1866Z" fill="#435060"/>
<path d="M3.98001 5.2735C3.97334 5.2735 3.96667 5.2735 3.96667 5.2735C2.76667 5.2335 1.82667 4.26016 1.82001 3.06016C1.82001 1.83349 2.82001 0.833496 4.04001 0.833496C5.26001 0.833496 6.26001 1.8335 6.26001 3.0535C6.26001 4.26016 5.32001 5.2335 4.12001 5.2735L3.98001 4.7735L4.02667 5.2735C4.01334 5.2735 3.99334 5.2735 3.98001 5.2735ZM4.04667 4.2735C4.08667 4.2735 4.12001 4.27349 4.16001 4.28016C4.75334 4.25349 5.27334 3.72016 5.27334 3.06016C5.27334 2.38683 4.72668 1.84016 4.05334 1.84016C3.38001 1.84016 2.83334 2.38683 2.83334 3.06016C2.83334 3.71349 3.34001 4.24016 3.98667 4.28016C3.99334 4.27349 4.02001 4.2735 4.04667 4.2735Z" fill="#435060"/>
<path d="M3.97331 10.1866C3.15331 10.1866 2.36665 9.96661 1.75998 9.56661C1.17331 9.17327 0.833313 8.6066 0.833313 8.0066C0.833313 7.41327 1.17331 6.8466 1.75998 6.45327C2.55998 5.91993 3.68665 5.71327 4.77331 5.9066C5.04665 5.95327 5.22665 6.21327 5.17998 6.4866C5.13331 6.75993 4.87331 6.9466 4.59998 6.89327C3.77331 6.7466 2.89998 6.89993 2.31331 7.2866C1.99998 7.49327 1.83331 7.7466 1.83331 8.0066C1.83331 8.2666 2.00665 8.52661 2.31331 8.73327C2.89331 9.11994 3.75998 9.27327 4.57998 9.13327C4.85331 9.0866 5.11331 9.27327 5.15998 9.53994C5.20665 9.81327 5.02665 10.0733 4.75331 10.1199C4.49331 10.1666 4.23331 10.1866 3.97331 10.1866Z" fill="#435060"/>
<path d="M7.99986 10.2532C7.97986 10.2532 7.96653 10.2532 7.94653 10.2532H7.9132C6.6532 10.2132 5.7132 9.23983 5.7132 8.03983C5.7132 6.81316 6.7132 5.81982 7.9332 5.81982C9.1532 5.81982 10.1532 6.81983 10.1532 8.03983C10.1465 9.24649 9.20653 10.2198 8.00653 10.2598C8.00653 10.2532 8.00653 10.2532 7.99986 10.2532ZM7.9332 6.81316C7.25986 6.81316 6.7132 7.35983 6.7132 8.03316C6.7132 8.69316 7.22653 9.2265 7.88653 9.25316C7.8932 9.2465 7.94653 9.2465 8.00653 9.25316C8.65319 9.21983 9.1532 8.6865 9.15986 8.03316C9.15986 7.3665 8.6132 6.81316 7.9332 6.81316Z" fill="#435060"/>
<path d="M7.99988 15.1735C7.19988 15.1735 6.39988 14.9668 5.77988 14.5468C5.19321 14.1535 4.85321 13.5935 4.85321 12.9935C4.85321 12.4002 5.18654 11.8268 5.77988 11.4335C7.02654 10.6068 8.97988 10.6068 10.2199 11.4335C10.8065 11.8268 11.1465 12.3868 11.1465 12.9868C11.1465 13.5801 10.8132 14.1535 10.2199 14.5468C9.59988 14.9602 8.79988 15.1735 7.99988 15.1735ZM6.33321 12.2735C6.01988 12.4801 5.85321 12.7401 5.85321 13.0001C5.85321 13.2601 6.02654 13.5135 6.33321 13.7201C7.23321 14.3268 8.75988 14.3268 9.65988 13.7201C9.97321 13.5135 10.1399 13.2535 10.1399 12.9935C10.1399 12.7335 9.96655 12.4801 9.65988 12.2735C8.76655 11.6668 7.23988 11.6735 6.33321 12.2735Z" fill="#435060"/>
</svg>
