<svg width="47" height="47" viewBox="0 0 47 47" fill="none" xmlns="http://www.w3.org/2000/svg">
<rect width="47" height="47" rx="23.5" fill="#E9DDCE"/>
<g clip-path="url(#clip0_102_2058)">
<path d="M25.7192 20.9533H38.191C38.5517 20.9533 38.8441 21.2457 38.8441 21.6064V23.8255C38.8441 24.1862 38.5517 24.4786 38.191 24.4786H8.80638C8.4457 24.4786 8.15332 24.1862 8.15332 23.8255V21.6064C8.15332 21.2457 8.4457 20.9533 8.80638 20.9533H23.4987" fill="#CE4500"/>
<path d="M23.4985 24.4787C24.472 24.4787 25.2612 23.6895 25.2612 22.716C25.2612 21.7425 24.472 20.9533 23.4985 20.9533C22.525 20.9533 21.7358 21.7425 21.7358 22.716C21.7358 23.6895 22.525 24.4787 23.4985 24.4787Z" fill="#FFD940"/>
<path d="M37.2121 24.4799V34.9168C37.2121 36.5472 35.8905 37.8688 34.2601 37.8688H12.7347C11.1043 37.8688 9.78271 36.5472 9.78271 34.9168V24.4799" fill="#ED732F"/>
<path d="M36.831 20.9533C38.9204 16.8051 39.4894 13.051 38.0447 12.2169C36.4362 11.2883 32.9409 14.3309 30.2378 19.013C29.861 19.6655 29.5196 20.3154 29.2153 20.9533H36.831Z" fill="#FF9D3B"/>
<path d="M27.0753 13.9589C25.5717 12.4986 23.3497 12.2903 21.8767 13.4104C21.726 13.1078 21.5254 12.8236 21.2732 12.5714C20.0205 11.3188 17.9895 11.3188 16.7368 12.5714C16.7231 12.5852 16.7103 12.5996 16.6968 12.6135V13.5991C16.6968 17.9763 19.6702 17.2353 19.6702 20.9533H23.4982H23.6795L27.0753 13.9589Z" fill="#4BDD6B"/>
<path d="M30.3061 18.4805C29.7731 17.9475 29.0992 17.6421 28.4044 17.5625C28.4892 16.8981 28.3978 16.2 28.1365 15.5399L25.5083 20.9533H25.7189H29.2151C29.5194 20.3154 29.8608 19.6655 30.2375 19.013C30.3097 18.888 30.3825 18.7644 30.4557 18.6418C30.4077 18.5868 30.3584 18.5328 30.3061 18.4805Z" fill="#4BDD6B"/>
<path d="M19.6706 20.9533C19.6706 17.2354 16.6972 17.9764 16.6972 13.5992V9.13119H13.9329V13.5992C13.9329 17.9763 10.9595 17.2354 10.9595 20.9533H19.6706Z" fill="#B047AA"/>
<path d="M25.054 21.8888L30.3676 10.9444H28.5389L23.6753 20.9622L25.054 21.8888Z" fill="#CE4500"/>
<path d="M38.1908 20.3002H37.8679C39.5344 16.6381 40.2798 12.7533 38.3711 11.6513C37.6366 11.2272 36.3034 11.1201 34.1228 13.0183C32.8319 14.142 31.503 15.7538 30.3121 17.6295C29.9417 17.3581 29.5301 17.1559 29.088 17.0324C29.0834 16.5459 29.0003 16.0545 28.8438 15.5785L30.9552 11.2295C31.0534 11.0271 31.0406 10.7884 30.9212 10.5977C30.8017 10.407 30.5926 10.2912 30.3676 10.2912H28.539C28.2889 10.2912 28.0607 10.4341 27.9515 10.659L26.8477 12.9325C25.39 11.9329 23.5417 11.7661 22.0848 12.5113C21.9779 12.3698 21.8612 12.2357 21.7352 12.1097C21.006 11.3804 20.0365 10.9789 19.0052 10.9789C18.4231 10.9789 17.8607 11.1069 17.3501 11.3495V9.13119C17.3501 8.7705 17.0577 8.47813 16.697 8.47813H13.9328C13.5721 8.47813 13.2797 8.7705 13.2797 9.13119V13.5992C13.2797 15.6258 12.6266 16.3491 11.8704 17.1866C11.2208 17.9061 10.4949 18.7113 10.3378 20.3003H8.80619C8.08594 20.3002 7.5 20.8862 7.5 21.6064V23.8255C7.5 24.5457 8.08594 25.1317 8.80619 25.1317H9.12982V34.9168C9.12982 36.9046 10.747 38.5219 12.7349 38.5219H34.2602C36.2481 38.5219 37.8653 36.9047 37.8653 34.9168V25.1317H38.1909C38.9111 25.1317 39.4971 24.5457 39.4971 23.8255V21.6063C39.497 20.8862 38.9111 20.3002 38.1908 20.3002ZM34.9804 14.0035C36.4087 12.7602 37.3479 12.5686 37.7181 12.7825C38.5069 13.2379 38.4719 16.0864 36.4254 20.3002H30.2734C30.4427 19.9784 30.6197 19.6573 30.8033 19.3395C30.8737 19.2175 30.9449 19.0966 31.0165 18.9766H31.0166C31.017 18.976 31.0173 18.9752 31.0178 18.9745C32.2405 16.9271 33.6381 15.1721 34.9804 14.0035ZM27.7832 17.7633C27.8066 17.8358 27.8427 17.9043 27.8907 17.9654C27.9984 18.1029 28.1568 18.1914 28.3303 18.2113C28.8144 18.2668 29.2599 18.4527 29.6337 18.753L29.6344 18.7531C29.341 19.2643 29.0644 19.7826 28.8077 20.3002H26.5514L27.7832 17.7633ZM32.9493 25.1317L36.5591 28.7415V31.8677C36.5352 31.8858 36.5117 31.9051 36.4899 31.927L35.4782 32.9386L32.8414 30.3018L33.3406 29.8026C33.5956 29.5476 33.5957 29.134 33.3406 28.879C33.0855 28.624 32.672 28.624 32.417 28.879L31.9179 29.3782L29.2807 26.7411L30.8901 25.1317L32.9493 25.1317ZM36.4019 33.8622L36.5591 33.705V34.0194L36.4019 33.8622ZM18.386 37.2157L15.0355 33.8652L17.6725 31.2282L20.3094 33.8651L19.8705 34.304C19.6155 34.559 19.6155 34.9726 19.8705 35.2276C19.998 35.3552 20.1651 35.4189 20.3323 35.4189C20.4994 35.4189 20.6666 35.3552 20.7941 35.2276L21.233 34.7887L23.66 37.2157H18.386ZM10.8388 36.2147C10.5849 35.8451 10.4359 35.3981 10.4359 34.9167V31.3437L10.5514 31.2283L13.1883 33.8652L10.8388 36.2147ZM11.4749 30.3047L14.1119 27.6677L16.7489 30.3046L14.1119 32.9416L11.4749 30.3047ZM16.648 25.1317H25.8242L27.4335 26.741L24.7966 29.378L24.099 28.6804C23.844 28.4254 23.4304 28.4254 23.1753 28.6804C22.9203 28.9354 22.9203 29.3489 23.1753 29.604L23.873 30.3016L21.2332 32.9414L18.5963 30.3045L20.7942 28.1066C21.0492 27.8516 21.0492 27.438 20.7942 27.183C20.5392 26.928 20.1256 26.928 19.8706 27.183L17.6726 29.3809L15.0357 26.744L16.648 25.1317ZM14.1119 25.8203L13.4233 25.1317H14.8007L14.1119 25.8203ZM24.7938 36.5022L22.1567 33.8651L24.7965 31.2253L27.4337 33.8624L24.7938 36.5022ZM25.7202 30.3015L28.3571 27.6646L30.9942 30.3017L28.3572 32.9387L25.7202 30.3015ZM28.3573 34.7859L30.787 37.2156H25.9275L28.3573 34.7859ZM29.2809 33.8624L31.9179 31.2254L34.5547 33.8622L31.9178 36.4992L29.2809 33.8624ZM28.3572 25.8174L27.6714 25.1317H29.0429L28.3572 25.8174ZM22.3879 22.7159C22.3879 22.1041 22.8857 21.6064 23.4975 21.6064C24.1093 21.6064 24.607 22.1042 24.607 22.7159C24.607 23.3277 24.1093 23.8255 23.4975 23.8255C22.8857 23.8255 22.3879 23.3277 22.3879 22.7159ZM28.948 11.5975H29.3247L24.8857 20.7407C24.7931 20.6754 24.6958 20.6167 24.5945 20.5647L28.948 11.5975ZM19.0053 12.2851C19.6876 12.2851 20.3291 12.5508 20.8117 13.0333C21.0071 13.2288 21.1688 13.4536 21.2923 13.7016C21.379 13.8758 21.5389 14.0023 21.7284 14.0465C21.9179 14.0909 22.1174 14.0482 22.2722 13.9304C23.3887 13.0813 25.0378 13.1822 26.2693 14.1243L23.2709 20.3002H20.2921C20.135 18.7112 19.4091 17.906 18.7595 17.1866C18.0033 16.3491 17.3503 15.6258 17.3503 13.5991V12.8934C17.8116 12.4996 18.392 12.2851 19.0053 12.2851ZM16.044 9.78432V10.2597H14.5859V9.78432H16.044ZM12.8399 18.062C13.6583 17.1556 14.5859 16.1283 14.5859 13.5992V11.5658H16.044V13.5992C16.044 16.1283 16.9716 17.1556 17.79 18.062C18.3688 18.703 18.845 19.2303 18.9794 20.3003H11.6504C11.785 19.2303 12.2611 18.703 12.8399 18.062ZM8.80619 21.6064H21.3528C21.18 21.9389 21.0818 22.316 21.0818 22.7159C21.0818 23.1158 21.1801 23.493 21.3528 23.8255H8.80619V21.6064ZM11.5761 25.1317L13.1884 26.744L10.5514 29.381L10.4359 29.2655V25.1316L11.5761 25.1317ZM11.8588 37.0418L14.1119 34.7887L16.5387 37.2156H12.7348C12.4248 37.2157 12.129 37.1536 11.8588 37.0418ZM34.2601 37.2157H33.0484L35.4782 34.7857L36.4135 35.721C36.0867 36.5931 35.2449 37.2157 34.2601 37.2157ZM36.5591 26.8944L34.7964 25.1317H36.5591V26.8944ZM38.1908 23.8255H25.6422C25.815 23.493 25.9132 23.1158 25.9132 22.716C25.9132 22.4313 25.8633 22.1583 25.7725 21.9045L25.9173 21.6065H29.2152H36.8309H38.1908V23.8255Z" fill="black"/>
<path d="M35.4756 16.4261C35.5314 16.4261 35.5884 16.4188 35.645 16.4037L36.8652 16.0768C37.2137 15.9835 37.4204 15.6253 37.3271 15.277C37.2337 14.9285 36.8756 14.7218 36.5272 14.8151L35.307 15.1421C34.9586 15.2354 34.7518 15.5936 34.8452 15.9419C34.9234 16.2337 35.1872 16.4261 35.4756 16.4261Z" fill="black"/>
<path d="M32.8877 19.3319C32.9658 19.6237 33.2297 19.8162 33.5181 19.8162C33.574 19.8162 33.631 19.8089 33.6875 19.7938L34.9078 19.4668C35.2562 19.3735 35.463 19.0153 35.3696 18.667C35.2763 18.3186 34.9181 18.1118 34.5698 18.2052L33.3495 18.5321C33.001 18.6254 32.7943 18.9836 32.8877 19.3319Z" fill="black"/>
<path d="M21.7078 26.9225C21.8749 26.9225 22.0421 26.8588 22.1696 26.7312L22.1756 26.7252C22.4306 26.4702 22.4306 26.0566 22.1756 25.8015C21.9206 25.5465 21.5071 25.5465 21.252 25.8015L21.2459 25.8076C20.9909 26.0626 20.9909 26.4762 21.2459 26.7312C21.3736 26.8588 21.5406 26.9225 21.7078 26.9225Z" fill="black"/>
<path d="M18.5601 35.6146L18.554 35.6207C18.299 35.8757 18.299 36.2892 18.554 36.5443C18.6816 36.6719 18.8487 36.7356 19.0159 36.7356C19.183 36.7356 19.3502 36.6719 19.4777 36.5443L19.4837 36.5382C19.7387 36.2832 19.7387 35.8697 19.4837 35.6146C19.2287 35.3596 18.8152 35.3596 18.5601 35.6146Z" fill="black"/>
<path d="M34.0915 28.7814C34.2587 28.7814 34.4259 28.7176 34.5534 28.59L34.5594 28.584C34.8144 28.329 34.8144 27.9154 34.5594 27.6604C34.3044 27.4054 33.8909 27.4054 33.6358 27.6604L33.6297 27.6664C33.3747 27.9214 33.3747 28.335 33.6297 28.59C33.7573 28.7176 33.9244 28.7814 34.0915 28.7814Z" fill="black"/>
</g>
<defs>
<clipPath id="clip0_102_2058">
<rect width="32" height="32" fill="white" transform="translate(7.5 7.5)"/>
</clipPath>
</defs>
</svg>
