<svg width="24" height="25" viewBox="0 0 24 25" fill="none" xmlns="http://www.w3.org/2000/svg">
<rect y="0.5" width="24" height="24" rx="12" fill="#00A45F" fill-opacity="0.1"/>
<path d="M13.9268 16.6467H8.06681C7.72015 16.6467 7.39347 16.6134 7.10014 16.5467C6.9468 16.5267 6.76015 16.4733 6.56681 16.4C5.68015 16.0667 4.63348 15.2467 4.63348 13.2067V9.77334C4.63348 7.59334 5.88681 6.34003 8.06681 6.34003H13.9268C15.7668 6.34003 16.9535 7.22001 17.2735 8.82001C17.3335 9.11334 17.3601 9.42667 17.3601 9.77334V13.2067C17.3601 15.4 16.1135 16.6467 13.9268 16.6467ZM8.07347 7.35337C6.43347 7.35337 5.64014 8.14668 5.64014 9.78668V13.22C5.64014 14.4134 6.06015 15.1467 6.92015 15.4734C7.05348 15.52 7.18015 15.5533 7.30015 15.5733C7.55348 15.6267 7.80013 15.6533 8.07347 15.6533H13.9335C15.5735 15.6533 16.3668 14.86 16.3668 13.22V9.78668C16.3668 9.50668 16.3468 9.26001 16.3001 9.03335C16.0735 7.90001 15.3001 7.35337 13.9335 7.35337H8.07347Z" fill="#00A45F"/>
<path d="M15.9267 18.6466H10.0667C9.50004 18.6466 8.99337 18.5666 8.56003 18.4C7.58003 18.0333 6.94003 17.26 6.72003 16.1533C6.68669 15.9866 6.74004 15.8133 6.86004 15.7C6.98004 15.58 7.15338 15.5333 7.32004 15.5733C7.54004 15.62 7.78671 15.6466 8.06671 15.6466H13.9267C15.5667 15.6466 16.36 14.8533 16.36 13.2133V9.77996C16.36 9.49996 16.34 9.25329 16.2934 9.02662C16.26 8.85995 16.3134 8.69329 16.4267 8.57329C16.5467 8.45329 16.7134 8.39995 16.88 8.43995C18.48 8.76662 19.36 9.95329 19.36 11.78V15.2133C19.36 17.4 18.1134 18.6466 15.9267 18.6466ZM7.94671 16.6466C8.16005 17.0333 8.48004 17.3066 8.92004 17.4666C9.24004 17.5866 9.62669 17.6466 10.0734 17.6466H15.9334C17.5734 17.6466 18.3667 16.8533 18.3667 15.2133V11.78C18.3667 10.7266 18.04 10.0266 17.3667 9.65996C17.3667 9.69996 17.3667 9.73996 17.3667 9.77996V13.2133C17.3667 15.3933 16.1134 16.6466 13.9334 16.6466H8.07336C8.02669 16.6466 7.98671 16.6466 7.94671 16.6466Z" fill="#00A45F"/>
<path d="M10.9999 13.76C9.75327 13.76 8.73993 12.7467 8.73993 11.5C8.73993 10.2533 9.75327 9.23999 10.9999 9.23999C12.2466 9.23999 13.2599 10.2533 13.2599 11.5C13.2599 12.7467 12.2466 13.76 10.9999 13.76ZM10.9999 10.24C10.3066 10.24 9.73993 10.8067 9.73993 11.5C9.73993 12.1933 10.3066 12.76 10.9999 12.76C11.6933 12.76 12.2599 12.1933 12.2599 11.5C12.2599 10.8067 11.6933 10.24 10.9999 10.24Z" fill="#00A45F"/>
<path d="M7.18683 13.4667C6.9135 13.4667 6.68683 13.2401 6.68683 12.9667V10.0334C6.68683 9.76005 6.9135 9.53339 7.18683 9.53339C7.46016 9.53339 7.68683 9.76005 7.68683 10.0334V12.9667C7.68683 13.2401 7.46683 13.4667 7.18683 13.4667Z" fill="#00A45F"/>
<path d="M14.8066 13.4667C14.5333 13.4667 14.3066 13.2401 14.3066 12.9667V10.0334C14.3066 9.76005 14.5333 9.53339 14.8066 9.53339C15.08 9.53339 15.3066 9.76005 15.3066 10.0334V12.9667C15.3066 13.2401 15.0866 13.4667 14.8066 13.4667Z" fill="#00A45F"/>
</svg>
