<svg width="47" height="47" viewBox="0 0 47 47" fill="none" xmlns="http://www.w3.org/2000/svg">
<rect width="47" height="47" rx="23.5" fill="#F0EAD1"/>
<g clip-path="url(#clip0_98_1374)">
<path d="M20.2571 13.6084C18.3442 12.9613 17.0571 9.53022 17.0571 8.15778C17.0571 8.15778 18.4545 10.2271 21.5869 8.73378L24.6305 9.14266L29.9638 8.15778C29.9638 9.53022 28.6731 12.9613 26.7638 13.6084H20.2571Z" fill="#E6D488"/>
<path d="M26.7426 13.6049C31.4609 16.3462 34.9204 24.4422 34.9204 29.292C34.9062 35.2013 29.8004 38.86 23.5 38.86C17.1995 38.86 12.0938 35.2013 12.0938 29.292C12.0938 24.4422 15.5391 16.3462 20.2715 13.6049" fill="#FFEB97"/>
<path d="M22.9949 30.6716C21.835 30.6101 20.7375 30.1271 19.9087 29.3133L20.9149 27.8911C21.4706 28.478 22.1994 28.8717 22.9949 29.0147V26.956C21.6474 26.6004 20.1825 26.1204 20.1825 24.3391C20.1825 23.0164 21.2278 21.8929 22.9949 21.708V20.4956H24.2394V21.7222C25.2265 21.8149 26.1576 22.2225 26.8954 22.8849L25.8607 24.2467C25.4006 23.8311 24.8429 23.5388 24.2394 23.3969V25.2422C25.5869 25.5978 27.0838 26.1062 27.0838 27.884C27.0838 29.3347 26.1416 30.4476 24.2394 30.6431V31.8342H22.9949V30.6716ZM22.9949 24.9293V23.3329C22.4047 23.4111 22.0811 23.7382 22.0811 24.1827C22.0776 24.5667 22.4331 24.7729 22.9949 24.9222V24.9293ZM24.2394 27.2724V29.0253C24.8794 28.8938 25.2065 28.5169 25.2065 28.1116C25.2065 27.7062 24.8011 27.4538 24.2394 27.2724Z" fill="#435060"/>
<path d="M23.4998 39.5C16.5203 39.5 11.4536 35.2084 11.4536 29.2956C11.4536 24.396 14.7034 16.8511 19.0376 13.6511C17.3238 12.2893 16.4136 9.34533 16.4136 8.16133C16.4132 8.03297 16.4514 7.90745 16.5233 7.80108C16.5952 7.69471 16.6973 7.61241 16.8166 7.56487C16.9358 7.51733 17.0666 7.50674 17.1919 7.53449C17.3173 7.56223 17.4314 7.62702 17.5194 7.72044C17.5407 7.74178 19.5745 9.85378 22.0029 9.85378C22.087 9.85378 22.1702 9.87033 22.2479 9.90249C22.3255 9.93466 22.3961 9.9818 22.4555 10.0412C22.5149 10.1007 22.5621 10.1712 22.5942 10.2489C22.6264 10.3265 22.6429 10.4097 22.6429 10.4938C22.6429 10.5778 22.6264 10.661 22.5942 10.7387C22.5621 10.8163 22.5149 10.8869 22.4555 10.9463C22.3961 11.0058 22.3255 11.0529 22.2479 11.0851C22.1702 11.1172 22.087 11.1338 22.0029 11.1338C20.5846 11.0888 19.2108 10.6276 18.0527 9.80755C18.5185 11.1231 19.3932 12.652 20.4598 13.0076C20.5762 13.0469 20.6788 13.1189 20.7553 13.215C20.8319 13.3111 20.8791 13.4271 20.8915 13.5494C20.9039 13.6716 20.8808 13.7948 20.8251 13.9042C20.7693 14.0137 20.6833 14.1048 20.5772 14.1667C16.2323 16.6876 12.7336 24.5062 12.7336 29.2956C12.7336 34.5507 17.1603 38.22 23.4998 38.22C29.8394 38.22 34.2661 34.5507 34.2661 29.2956C34.2661 24.5062 30.7674 16.6876 26.4225 14.1631C26.3164 14.1012 26.2303 14.0101 26.1746 13.9007C26.1189 13.7912 26.0958 13.668 26.1082 13.5458C26.1205 13.4236 26.1678 13.3075 26.2444 13.2114C26.3209 13.1154 26.4235 13.0434 26.5398 13.004C28.1221 12.4778 29.3061 9.324 29.3061 8.15778C29.3061 7.98804 29.3735 7.82525 29.4935 7.70523C29.6135 7.5852 29.7763 7.51778 29.9461 7.51778C30.1158 7.51778 30.2786 7.5852 30.3986 7.70523C30.5186 7.82525 30.5861 7.98804 30.5861 8.15778C30.5861 9.34178 29.6723 12.2858 27.9621 13.6476C32.2963 16.8653 35.5461 24.396 35.5461 29.292C35.5461 35.2084 30.4794 39.5 23.4998 39.5Z" fill="#435060"/>
<path d="M25.0286 11.6884C24.8914 11.6882 24.7578 11.6438 24.6477 11.5619C24.5376 11.4799 24.4567 11.3647 24.4171 11.2333C24.1504 10.3444 23.6598 9.24222 22.8526 9.05377C21.946 8.844 20.8082 9.80755 20.4811 10.1596C20.4232 10.2214 20.3537 10.2713 20.2765 10.3063C20.1993 10.3413 20.116 10.3607 20.0314 10.3635C19.9467 10.3664 19.8623 10.3524 19.7829 10.3226C19.7036 10.2928 19.631 10.2477 19.5691 10.1898C19.5072 10.1319 19.4574 10.0624 19.4224 9.98519C19.3874 9.90803 19.3679 9.82472 19.3651 9.74003C19.3623 9.65535 19.3762 9.57094 19.406 9.49162C19.4358 9.41231 19.481 9.33964 19.5389 9.27777C19.61 9.19955 21.3166 7.36844 23.1406 7.79511C24.2678 8.05466 25.1104 9.08577 25.6295 10.8529C25.6536 10.9334 25.6616 11.0179 25.6529 11.1015C25.6443 11.1852 25.6194 11.2663 25.5794 11.3402C25.5395 11.4142 25.4853 11.4795 25.4201 11.5326C25.3549 11.5856 25.2799 11.6253 25.1993 11.6493C25.1444 11.67 25.087 11.6831 25.0286 11.6884Z" fill="#435060"/>
<path d="M24.9434 10.3443C24.8656 10.3446 24.7884 10.3301 24.7159 10.3017C24.5622 10.2447 24.437 10.1297 24.3672 9.98149C24.2974 9.83323 24.2886 9.66351 24.3425 9.50878C24.4208 9.27767 25.2528 7.29011 29.9745 7.51767C30.1437 7.52596 30.3027 7.60097 30.4167 7.72627C30.5306 7.85156 30.5903 8.01692 30.5825 8.18611C30.578 8.27114 30.5567 8.35443 30.5199 8.43121C30.4831 8.508 30.4316 8.57677 30.3681 8.63358C30.3047 8.69039 30.2307 8.73413 30.1504 8.76229C30.07 8.79044 29.9849 8.80247 29.8999 8.79767C26.1594 8.61278 25.5301 9.94967 25.5265 9.96389C25.4743 10.0753 25.3921 10.1699 25.2891 10.2371C25.1861 10.3043 25.0664 10.3414 24.9434 10.3443Z" fill="#435060"/>
<path d="M27.5069 14.2911H20.5238C20.3541 14.2911 20.1913 14.2237 20.0712 14.1037C19.9512 13.9836 19.8838 13.8208 19.8838 13.6511C19.8838 13.4814 19.9512 13.3186 20.0712 13.1986C20.1913 13.0785 20.3541 13.0111 20.5238 13.0111H27.5069C27.6766 13.0111 27.8394 13.0785 27.9594 13.1986C28.0795 13.3186 28.1469 13.4814 28.1469 13.6511C28.1469 13.8208 28.0795 13.9836 27.9594 14.1037C27.8394 14.2237 27.6766 14.2911 27.5069 14.2911Z" fill="#435060"/>
<path d="M32.2819 16.9862C32.1356 16.9863 31.9937 16.9362 31.8799 16.8443C31.766 16.7524 31.687 16.6243 31.6562 16.4813C31.233 14.5435 27.5922 14.7782 27.5566 14.7818C27.3873 14.7954 27.2196 14.7413 27.0902 14.6313C26.9609 14.5213 26.8805 14.3644 26.8668 14.1951C26.8532 14.0258 26.9073 13.8581 27.0173 13.7287C27.1273 13.5994 27.2842 13.519 27.4535 13.5053C27.6455 13.5053 32.2393 13.1498 32.9077 16.2075C32.9437 16.373 32.9126 16.546 32.8213 16.6886C32.73 16.8312 32.5859 16.9319 32.4206 16.9684C32.3752 16.9793 32.3287 16.9853 32.2819 16.9862Z" fill="#435060"/>
<path d="M28.8117 14.4156C28.2617 14.4104 27.7189 14.2892 27.2189 14.06C27.0755 13.9797 26.9686 13.8474 26.9201 13.6905C26.8716 13.5335 26.8854 13.3639 26.9585 13.2168C27.0316 13.0697 27.1584 12.9563 27.3128 12.9002C27.4672 12.844 27.6372 12.8494 27.7877 12.9151C28.2841 13.1456 28.8466 13.191 29.3735 13.0431C29.6004 12.9435 29.8036 12.7969 29.9697 12.6131C30.1358 12.4292 30.261 12.2122 30.3371 11.9764C30.37 11.8989 30.4179 11.8287 30.4779 11.7697C30.538 11.7106 30.6091 11.664 30.6872 11.6325C30.7653 11.601 30.8488 11.5851 30.933 11.5859C31.0172 11.5866 31.1005 11.604 31.178 11.6369C31.2555 11.6698 31.3257 11.7177 31.3848 11.7777C31.4438 11.8378 31.4904 11.9089 31.5219 11.987C31.5534 12.0651 31.5693 12.1486 31.5685 12.2328C31.5678 12.317 31.5504 12.4003 31.5175 12.4778C31.3757 12.8784 31.1501 13.2441 30.8558 13.5507C30.5616 13.8572 30.2053 14.0975 29.8109 14.2556C29.4899 14.3674 29.1516 14.4215 28.8117 14.4156Z" fill="#435060"/>
</g>
<defs>
<clipPath id="clip0_98_1374">
<rect width="32" height="32" fill="white" transform="translate(7.5 7.5)"/>
</clipPath>
</defs>
</svg>
