<svg width="36" height="36" viewBox="0 0 36 36" fill="none" xmlns="http://www.w3.org/2000/svg">
<rect width="36" height="36" rx="18" fill="#00A45F" fill-opacity="0.1"/>
<path d="M20.4087 23.1833H13.0837C12.6503 23.1833 12.242 23.1417 11.8753 23.0584C11.6836 23.0334 11.4503 22.9667 11.2087 22.875C10.1003 22.4584 8.79199 21.4334 8.79199 18.8834V14.5917C8.79199 11.8667 10.3587 10.3 13.0837 10.3H20.4087C22.7087 10.3 24.192 11.4 24.592 13.4C24.667 13.7667 24.7003 14.1584 24.7003 14.5917V18.8834C24.7003 21.625 23.142 23.1833 20.4087 23.1833ZM13.092 11.5667C11.042 11.5667 10.0503 12.5584 10.0503 14.6084V18.9001C10.0503 20.3917 10.5753 21.3084 11.6503 21.7167C11.817 21.7751 11.9753 21.8167 12.1253 21.8417C12.442 21.9084 12.7503 21.9417 13.092 21.9417H20.417C22.467 21.9417 23.4586 20.9501 23.4586 18.9001V14.6084C23.4586 14.2584 23.4337 13.95 23.3753 13.6667C23.092 12.25 22.1253 11.5667 20.417 11.5667H13.092Z" fill="#00A45F"/>
<path d="M22.9083 25.6833H15.5832C14.8749 25.6833 14.2416 25.5833 13.6999 25.3749C12.4749 24.9166 11.6749 23.9499 11.3999 22.5666C11.3582 22.3583 11.4249 22.1416 11.5749 21.9999C11.7249 21.8499 11.9416 21.7916 12.1499 21.8416C12.4249 21.8999 12.7332 21.9333 13.0832 21.9333H20.4083C22.4583 21.9333 23.4499 20.9416 23.4499 18.8916V14.5999C23.4499 14.2499 23.4249 13.9416 23.3666 13.6583C23.3249 13.4499 23.3916 13.2416 23.5333 13.0916C23.6833 12.9416 23.8916 12.8749 24.0999 12.9249C26.0999 13.3333 27.1999 14.8166 27.1999 17.0999V21.3916C27.1999 24.125 25.6416 25.6833 22.9083 25.6833ZM12.9333 23.1833C13.1999 23.6666 13.5999 24.0083 14.1499 24.2083C14.5499 24.3583 15.0332 24.4333 15.5916 24.4333H22.9166C24.9666 24.4333 25.9582 23.4416 25.9582 21.3916V17.0999C25.9582 15.7833 25.5499 14.9083 24.7082 14.4499C24.7082 14.4999 24.7082 14.5499 24.7082 14.5999V18.8916C24.7082 21.6166 23.1416 23.1833 20.4166 23.1833H13.0916C13.0332 23.1833 12.9833 23.1833 12.9333 23.1833Z" fill="#00A45F"/>
<path d="M16.7501 19.575C15.1917 19.575 13.925 18.3083 13.925 16.75C13.925 15.1917 15.1917 13.925 16.7501 13.925C18.3084 13.925 19.5751 15.1917 19.5751 16.75C19.5751 18.3083 18.3084 19.575 16.7501 19.575ZM16.7501 15.175C15.8834 15.175 15.175 15.8833 15.175 16.75C15.175 17.6167 15.8834 18.325 16.7501 18.325C17.6167 18.325 18.3251 17.6167 18.3251 16.75C18.3251 15.8833 17.6167 15.175 16.7501 15.175Z" fill="#00A45F"/>
<path d="M11.9834 19.2084C11.6417 19.2084 11.3584 18.9251 11.3584 18.5834V14.9167C11.3584 14.5751 11.6417 14.2917 11.9834 14.2917C12.3251 14.2917 12.6084 14.5751 12.6084 14.9167V18.5834C12.6084 18.9251 12.3334 19.2084 11.9834 19.2084Z" fill="#00A45F"/>
<path d="M21.5083 19.2084C21.1666 19.2084 20.8833 18.9251 20.8833 18.5834V14.9167C20.8833 14.5751 21.1666 14.2917 21.5083 14.2917C21.85 14.2917 22.1333 14.5751 22.1333 14.9167V18.5834C22.1333 18.9251 21.8583 19.2084 21.5083 19.2084Z" fill="#00A45F"/>
</svg>
