<svg width="24" height="25" viewBox="0 0 24 25" fill="none" xmlns="http://www.w3.org/2000/svg">
<rect y="0.5" width="24" height="24" rx="12" fill="#266FFF" fill-opacity="0.1"/>
<path d="M15.9999 9.77334C15.9799 9.77334 15.9666 9.77334 15.9466 9.77334H15.9132C14.6532 9.73334 13.7132 8.76 13.7132 7.56C13.7132 6.33333 14.7132 5.34 15.9332 5.34C17.1532 5.34 18.1532 6.34 18.1532 7.56C18.1466 8.76666 17.2066 9.74 16.0066 9.78C16.0066 9.77333 16.0066 9.77334 15.9999 9.77334ZM15.9332 6.33333C15.2599 6.33333 14.7132 6.88 14.7132 7.55333C14.7132 8.21333 15.2266 8.74667 15.8866 8.77334C15.8932 8.76667 15.9466 8.76667 16.0066 8.77334C16.6532 8.74 17.1532 8.20667 17.1599 7.55333C17.1599 6.88 16.6132 6.33333 15.9332 6.33333Z" fill="#266FFF"/>
<path d="M16.0067 14.6867C15.7467 14.6867 15.4867 14.6667 15.2267 14.62C14.9533 14.5734 14.7733 14.3134 14.82 14.04C14.8667 13.7667 15.1267 13.5867 15.4 13.6334C16.22 13.7734 17.0867 13.62 17.6667 13.2334C17.98 13.0267 18.1467 12.7667 18.1467 12.5067C18.1467 12.2467 17.9733 11.9934 17.6667 11.7867C17.0867 11.4 16.2067 11.2467 15.38 11.3934C15.1067 11.4467 14.8467 11.26 14.8 10.9867C14.7533 10.7134 14.9333 10.4534 15.2067 10.4067C16.2933 10.2134 17.42 10.42 18.22 10.9534C18.8067 11.3467 19.1467 11.9067 19.1467 12.5067C19.1467 13.1 18.8133 13.6667 18.22 14.0667C17.6133 14.4667 16.8267 14.6867 16.0067 14.6867Z" fill="#266FFF"/>
<path d="M7.97999 9.77335C7.97332 9.77335 7.96665 9.77335 7.96665 9.77335C6.76665 9.73335 5.82665 8.76001 5.81999 7.56001C5.81999 6.33334 6.81999 5.33334 8.03999 5.33334C9.25999 5.33334 10.26 6.33334 10.26 7.55334C10.26 8.76001 9.31999 9.73335 8.11999 9.77335L7.97999 9.27335L8.02665 9.77335C8.01332 9.77335 7.99332 9.77335 7.97999 9.77335ZM8.04665 8.77335C8.08665 8.77335 8.11999 8.77334 8.15999 8.78001C8.75332 8.75334 9.27332 8.22001 9.27332 7.56001C9.27332 6.88667 8.72665 6.34001 8.05332 6.34001C7.37999 6.34001 6.83332 6.88667 6.83332 7.56001C6.83332 8.21334 7.33999 8.74001 7.98665 8.78001C7.99332 8.77334 8.01999 8.77335 8.04665 8.77335Z" fill="#266FFF"/>
<path d="M7.97333 14.6867C7.15333 14.6867 6.36667 14.4667 5.76 14.0667C5.17333 13.6734 4.83333 13.1067 4.83333 12.5067C4.83333 11.9134 5.17333 11.3467 5.76 10.9534C6.56 10.42 7.68667 10.2134 8.77333 10.4067C9.04667 10.4534 9.22667 10.7134 9.18 10.9867C9.13333 11.26 8.87333 11.4467 8.6 11.3934C7.77333 11.2467 6.9 11.4 6.31333 11.7867C6 11.9934 5.83333 12.2467 5.83333 12.5067C5.83333 12.7667 6.00667 13.0267 6.31333 13.2334C6.89333 13.62 7.76 13.7734 8.58 13.6334C8.85333 13.5867 9.11334 13.7734 9.16 14.04C9.20667 14.3134 9.02667 14.5734 8.75333 14.62C8.49333 14.6667 8.23333 14.6867 7.97333 14.6867Z" fill="#266FFF"/>
<path d="M11.9999 14.7533C11.9799 14.7533 11.9665 14.7533 11.9465 14.7533H11.9132C10.6532 14.7133 9.71321 13.74 9.71321 12.54C9.71321 11.3133 10.7132 10.32 11.9332 10.32C13.1532 10.32 14.1532 11.32 14.1532 12.54C14.1465 13.7466 13.2065 14.72 12.0065 14.76C12.0065 14.7533 12.0065 14.7533 11.9999 14.7533ZM11.9332 11.3133C11.2599 11.3133 10.7132 11.86 10.7132 12.5333C10.7132 13.1933 11.2265 13.7266 11.8865 13.7533C11.8932 13.7466 11.9465 13.7466 12.0065 13.7533C12.6532 13.72 13.1532 13.1866 13.1599 12.5333C13.1599 11.8666 12.6132 11.3133 11.9332 11.3133Z" fill="#266FFF"/>
<path d="M11.9999 19.6733C11.1999 19.6733 10.3999 19.4667 9.77986 19.0467C9.19319 18.6533 8.85319 18.0933 8.85319 17.4933C8.85319 16.9 9.18652 16.3267 9.77986 15.9333C11.0265 15.1067 12.9799 15.1067 14.2199 15.9333C14.8065 16.3267 15.1465 16.8867 15.1465 17.4867C15.1465 18.08 14.8132 18.6533 14.2199 19.0467C13.5999 19.46 12.7999 19.6733 11.9999 19.6733ZM10.3332 16.7733C10.0199 16.98 9.85319 17.24 9.85319 17.5C9.85319 17.76 10.0265 18.0133 10.3332 18.22C11.2332 18.8267 12.7599 18.8267 13.6599 18.22C13.9732 18.0133 14.1399 17.7533 14.1399 17.4933C14.1399 17.2333 13.9665 16.98 13.6599 16.7733C12.7665 16.1667 11.2399 16.1733 10.3332 16.7733Z" fill="#266FFF"/>
</svg>
